# xmcd
#
# Track frame offsets:
#	150
#	14137
#	26594
#	37983
#	50648
#	61424
#	72188
#	83440
#	94369
#	106080
#	117252
#	128959
#	140346
#	152268
#	164171
#	175357
#	187338
#	197376
#	207811
#	218095
#
# Disc length: 3060 seconds
#
# Revision: 0
# Processed by: cddbd v1.4PL0 Copyright (c) Steve Scherf et al.
# Submitted via: EasyCDDAExtractor 5.0.4.1
#
DISCID=1c0bf214
DTITLE=Patsy Cline - Walkin' After Midnight
DYEAR=1900
DGENRE=Country
TTITLE0=A Church, A Courtroom, Then Goodbye
TTITLE1=A Poor Man's Roses
TTITLE2=Cry Not For Me
TTITLE3=Fingerprints
TTITLE4=Got A Lot Of Rhythm In My Soul
TTITLE5=Honky Tonk Merry-Go-Round
TTITLE6=Hidin' Out
TTITLE7=I Cried All The Way To The Alter
TTITLE8=I've Loved And Lost Again
TTITLE9=I Can't Forget
TTITLE10=In Care Of The Blues
TTITLE11=Just Out Of Reach
TTITLE12=Let The Teardrops Fall
TTITLE13=Never No More
TTITLE14=Stop The World (And Let Me Get Off)
TTITLE15=Today, Tomorrow And Forever
TTITLE16=Turn The Cards Slowly
TTITLE17=Too Many Secrets
TTITLE18=Three Cigarettes In An Ashtray
TTITLE19=Walkin' After Midnight
EXTD=
EXTT0=
EXTT1=
EXTT2=
EXTT3=
EXTT4=
EXTT5=
EXTT6=
EXTT7=
EXTT8=
EXTT9=
EXTT10=
EXTT11=
EXTT12=
EXTT13=
EXTT14=
EXTT15=
EXTT16=
EXTT17=
EXTT18=
EXTT19=
PLAYORDER=
